<?xml version="1.0" encoding="UTF-8" standalone="no"?>
<!DOCTYPE svg PUBLIC "-//W3C//DTD SVG 20010904//EN"
              "http://www.w3.org/TR/2001/REC-SVG-20010904/DTD/svg10.dtd">

<svg xmlns="http://www.w3.org/2000/svg"
     width="0.426667in" height="0.426667in"
     viewBox="0 0 128 128">
  <path id="Selection #2"
        fill="#000000" stroke="black" stroke-width="1"
        d="M 40.00,93.00
           C 41.65,87.81 44.96,83.60 47.81,79.00
             47.81,79.00 64.95,52.00 64.95,52.00
             66.86,48.99 74.60,36.17 76.53,34.60
             79.22,32.40 84.62,33.00 88.00,33.00
             88.00,33.00 61.69,75.00 61.69,75.00
             61.69,75.00 49.79,91.98 49.79,91.98
             49.79,91.98 40.00,93.00 40.00,93.00 Z
           M 5.00,63.00
           C 5.00,63.00 25.00,49.14 25.00,49.14
             27.15,47.61 31.15,44.37 33.91,44.87
             36.71,45.39 39.46,49.11 36.63,52.54
             36.63,52.54 19.00,66.00 19.00,66.00
             24.38,69.85 31.10,75.52 33.00,82.00
             31.10,83.20 28.33,85.40 26.00,85.09
             23.55,84.77 20.71,81.67 19.00,80.00
             14.14,75.23 6.93,69.58 5.00,63.00 Z
           M 95.00,49.00
           C 97.20,46.99 99.67,44.02 103.00,45.17
             105.09,45.89 108.37,49.38 110.00,51.00
             114.81,55.77 120.06,60.50 124.00,66.00
             124.00,66.00 104.00,80.29 104.00,80.29
             101.93,81.76 97.57,85.23 95.09,85.26
             91.72,85.30 90.11,81.57 89.00,79.00
             89.00,79.00 110.00,65.00 110.00,65.00
             110.00,65.00 95.00,49.00 95.00,49.00 Z" />
</svg>
